<svg 
 xmlns="http://www.w3.org/2000/svg"
 xmlns:xlink="http://www.w3.org/1999/xlink"
 width="75.5px" height="74.5px">
<path fill-rule="evenodd"  fill="rgb(255, 255, 255)"
 d="M60.379,47.940 C60.260,48.137 60.066,48.280 59.842,48.336 L41.994,52.811 C41.922,52.829 41.851,52.837 41.781,52.837 C41.774,52.837 41.770,52.837 41.764,52.837 C41.734,52.352 41.658,51.866 41.536,51.385 C41.396,50.830 41.199,50.300 40.951,49.800 C41.014,49.766 41.082,49.740 41.153,49.722 L59.057,45.233 C59.524,45.116 59.998,45.398 60.117,45.863 L60.475,47.282 C60.532,47.505 60.497,47.742 60.379,47.940 ZM56.893,44.951 L40.624,49.029 C40.591,49.037 40.557,49.044 40.524,49.048 C40.035,48.290 39.415,47.619 38.677,47.054 C37.439,46.108 35.933,45.542 34.386,45.432 C34.383,45.422 34.380,45.410 34.377,45.398 L30.628,30.588 C30.572,30.365 30.607,30.128 30.725,29.930 C30.844,29.732 31.037,29.590 31.261,29.533 L51.695,24.411 C51.919,24.355 52.156,24.389 52.355,24.507 C52.554,24.626 52.697,24.818 52.754,25.041 L57.526,43.896 C57.644,44.361 57.361,44.833 56.893,44.951 ZM33.250,45.435 C32.795,45.469 32.342,45.542 31.898,45.653 C31.305,45.801 30.746,46.013 30.223,46.279 C30.178,46.205 30.144,46.125 30.122,46.039 L24.096,22.234 L18.012,19.495 C17.801,19.400 17.636,19.225 17.555,19.010 C17.473,18.794 17.481,18.555 17.576,18.346 L18.182,17.012 C18.381,16.576 18.898,16.382 19.337,16.579 L26.452,19.782 C26.694,19.891 26.874,20.104 26.938,20.361 L33.224,45.192 C33.245,45.274 33.253,45.355 33.250,45.435 ZM32.319,47.320 C32.817,47.195 33.328,47.132 33.837,47.132 C35.195,47.132 36.540,47.589 37.624,48.417 C38.743,49.273 39.516,50.444 39.861,51.805 C40.266,53.404 40.020,55.066 39.167,56.485 C38.315,57.904 36.962,58.907 35.355,59.310 C34.857,59.435 34.347,59.498 33.837,59.498 C32.479,59.498 31.134,59.041 30.050,58.213 C28.931,57.357 28.157,56.186 27.813,54.825 C26.977,51.519 28.997,48.153 32.319,47.320 ZM30.664,54.110 C31.031,55.560 32.336,56.572 33.837,56.572 C34.105,56.572 34.374,56.539 34.636,56.473 C36.386,56.034 37.451,54.261 37.010,52.520 C36.643,51.071 35.338,50.059 33.837,50.059 C33.569,50.059 33.300,50.092 33.037,50.158 C32.192,50.369 31.479,50.898 31.029,51.646 C30.581,52.394 30.451,53.269 30.664,54.110 Z"/>
<path fill-rule="evenodd"  stroke="rgb(255, 255, 255)" stroke-width="3px" stroke-linecap="butt" stroke-linejoin="miter" fill="none"
 d="M36.752,1.500 C56.117,1.500 71.816,17.110 71.816,36.367 C71.816,55.623 56.117,71.234 36.752,71.234 C17.386,71.234 1.686,55.623 1.686,36.367 C1.686,17.110 17.386,1.500 36.752,1.500 Z"/>
</svg>