<svg 
 xmlns="http://www.w3.org/2000/svg"
 xmlns:xlink="http://www.w3.org/1999/xlink"
 width="75.5px" height="74.5px">
<path fill-rule="evenodd"  fill="rgb(255, 255, 255)"
 d="M54.909,48.565 L52.264,48.565 L52.264,55.524 C52.264,56.412 51.520,57.139 50.611,57.139 L24.329,57.139 C23.420,57.139 22.676,56.412 22.676,55.524 L22.676,48.565 L19.866,48.565 C17.229,48.565 15.073,46.458 15.073,43.881 L15.073,32.160 C15.073,29.584 17.229,27.476 19.866,27.476 L54.909,27.476 C57.546,27.476 59.702,29.584 59.702,32.160 L59.702,43.881 C59.702,46.458 57.546,48.565 54.909,48.565 ZM49.041,40.408 L25.899,40.408 L25.899,54.313 L49.041,54.313 L49.041,40.408 ZM52.925,31.444 C51.830,31.444 50.942,32.311 50.942,33.382 C50.942,34.453 51.830,35.320 52.925,35.320 C54.021,35.320 54.909,34.453 54.909,33.382 C54.909,32.311 54.021,31.444 52.925,31.444 ZM45.653,44.527 L29.288,44.527 L29.288,42.751 L45.653,42.751 L45.653,44.527 ZM45.653,47.697 L29.288,47.697 L29.288,45.920 L45.653,45.920 L45.653,47.697 ZM39.536,51.250 L29.288,51.250 L29.288,49.312 L39.536,49.312 L39.536,51.250 ZM49.041,19.720 L25.899,19.720 L25.899,25.145 L22.758,25.145 L22.758,19.101 C22.758,17.748 23.881,16.651 25.266,16.651 L49.509,16.651 C50.985,16.651 52.181,17.820 52.181,19.262 L52.181,25.145 L49.041,25.145 L49.041,19.720 Z"/>
<path fill-rule="evenodd"  stroke="rgb(255, 255, 255)" stroke-width="3px" stroke-linecap="butt" stroke-linejoin="miter" fill="none"
 d="M37.190,1.500 C56.556,1.500 72.255,17.111 72.255,36.367 C72.255,55.623 56.556,71.234 37.190,71.234 C17.824,71.234 2.125,55.623 2.125,36.367 C2.125,17.111 17.824,1.500 37.190,1.500 Z"/>
</svg>