<svg 
 xmlns="http://www.w3.org/2000/svg"
 xmlns:xlink="http://www.w3.org/1999/xlink"
 width="75.5px" height="74.5px">
<path fill-rule="evenodd"  fill="rgb(255, 255, 255)"
 d="M36.308,15.167 C28.153,15.167 21.518,21.740 21.518,29.819 C21.518,37.587 35.084,57.982 35.661,58.848 L36.046,59.419 C36.104,59.506 36.202,59.558 36.308,59.558 C36.412,59.556 36.510,59.506 36.569,59.419 L36.951,58.847 C37.530,57.980 51.095,37.577 51.095,29.819 C51.095,21.740 44.463,15.167 36.308,15.167 ZM36.308,37.762 C31.882,37.762 28.282,34.199 28.282,29.819 C28.282,25.436 31.882,21.872 36.308,21.872 C40.732,21.872 44.331,25.436 44.331,29.819 C44.331,34.199 40.732,37.762 36.308,37.762 Z"/>
<path fill-rule="evenodd"  stroke="rgb(255, 255, 255)" stroke-width="3px" stroke-linecap="butt" stroke-linejoin="miter" fill="none"
 d="M36.586,1.500 C55.952,1.500 71.651,17.111 71.651,36.367 C71.651,55.623 55.952,71.234 36.586,71.234 C17.221,71.234 1.521,55.623 1.521,36.367 C1.521,17.111 17.221,1.500 36.586,1.500 Z"/>
</svg>