<svg 
 xmlns="http://www.w3.org/2000/svg"
 xmlns:xlink="http://www.w3.org/1999/xlink"
 width="48px" height="39px">
<path fill-rule="evenodd"  fill="rgb(0, 61, 148)"
 d="M45.431,22.003 L2.569,22.003 C1.186,22.003 0.065,20.883 0.065,19.500 C0.065,18.117 1.186,16.997 2.569,16.997 L45.431,16.997 C46.814,16.997 47.935,18.117 47.935,19.500 C47.935,20.883 46.814,22.003 45.431,22.003 ZM45.431,5.916 L2.569,5.916 C1.186,5.916 0.065,4.795 0.065,3.412 C0.065,2.030 1.186,0.909 2.569,0.909 L45.431,0.909 C46.814,0.909 47.935,2.030 47.935,3.412 C47.935,4.795 46.814,5.916 45.431,5.916 ZM2.569,33.084 L45.431,33.084 C46.814,33.084 47.935,34.205 47.935,35.587 C47.935,36.970 46.814,38.091 45.431,38.091 L2.569,38.091 C1.186,38.091 0.065,36.970 0.065,35.587 C0.065,34.205 1.186,33.084 2.569,33.084 Z"/>
</svg>