<svg 
 xmlns="http://www.w3.org/2000/svg"
 xmlns:xlink="http://www.w3.org/1999/xlink"
 width="42px" height="41px">
<path fill-rule="evenodd"  fill="rgb(255, 255, 255)"
 d="M40.940,4.467 L24.646,20.748 L40.581,36.683 C41.559,37.661 41.559,39.246 40.581,40.224 C39.604,41.201 38.019,41.201 37.041,40.223 L21.105,24.287 L5.243,40.137 C4.273,41.105 2.703,41.105 1.734,40.137 C0.765,39.170 0.765,37.600 1.734,36.631 L17.597,20.780 L1.076,4.258 C0.098,3.280 0.098,1.696 1.075,0.718 C2.053,-0.259 3.638,-0.259 4.616,0.718 L21.139,17.241 L37.431,0.961 C38.400,-0.007 39.971,-0.007 40.940,0.961 C41.909,1.929 41.909,3.499 40.940,4.467 Z"/>
</svg>