<svg 
 xmlns="http://www.w3.org/2000/svg"
 xmlns:xlink="http://www.w3.org/1999/xlink"
 width="75.5px" height="74.5px">
<path fill-rule="evenodd"  fill="rgb(255, 255, 255)"
 d="M50.125,15.183 C49.746,15.183 49.420,15.208 49.158,15.256 C47.351,15.585 45.627,17.427 44.027,20.731 C43.114,22.622 42.553,24.445 42.449,25.888 C42.363,27.663 44.647,30.360 45.388,31.187 C45.337,31.445 45.223,31.859 44.962,32.445 C44.278,33.960 41.283,37.493 39.602,39.167 C38.118,40.644 34.432,43.791 32.865,44.494 C32.274,44.752 31.855,44.872 31.574,44.928 C30.762,44.212 28.120,42.007 26.341,42.007 L26.210,42.009 C24.796,42.108 22.969,42.663 21.063,43.574 C19.275,44.430 17.901,45.327 16.975,46.247 C16.187,47.040 15.710,47.860 15.560,48.684 C15.252,50.373 15.981,55.168 17.558,56.740 C18.727,57.901 20.444,58.514 22.525,58.514 L22.525,58.514 C24.580,58.514 26.947,57.945 29.562,56.820 C34.361,54.755 41.228,49.346 45.529,45.071 C49.816,40.812 55.250,33.987 57.343,29.182 C59.629,23.918 59.599,19.567 57.261,17.247 C55.802,15.789 51.892,15.183 50.125,15.183 Z"/>
<path fill-rule="evenodd"  stroke="rgb(255, 255, 255)" stroke-width="3px" stroke-linecap="butt" stroke-linejoin="miter" fill="none"
 d="M36.751,1.500 C56.117,1.500 71.816,17.111 71.816,36.367 C71.816,55.623 56.117,71.234 36.751,71.234 C17.386,71.234 1.686,55.623 1.686,36.367 C1.686,17.111 17.386,1.500 36.751,1.500 Z"/>
</svg>