<svg 
 xmlns="http://www.w3.org/2000/svg"
 xmlns:xlink="http://www.w3.org/1999/xlink"
 width="70px" height="78px">
<path fill-rule="evenodd"  fill="rgb(255, 255, 255)"
 d="M68.116,76.138 C66.899,77.339 65.286,78.000 63.572,78.000 L18.661,78.000 C16.947,78.000 15.334,77.338 14.119,76.137 C12.902,74.935 12.233,73.340 12.233,71.645 L12.233,58.711 L4.916,58.711 C3.605,58.711 2.371,58.203 1.442,57.283 C0.512,56.362 0.000,55.140 0.000,53.842 L0.000,37.902 C0.000,36.603 0.512,35.380 1.442,34.460 C2.371,33.539 3.605,33.032 4.916,33.032 L12.233,33.032 L12.233,6.366 C12.233,4.668 12.902,3.070 14.119,1.866 C15.334,0.663 16.947,-0.000 18.661,-0.000 L48.235,-0.000 C48.494,-0.000 48.748,0.051 48.988,0.152 C49.227,0.252 49.439,0.398 49.621,0.584 L69.463,21.009 C69.634,21.186 69.769,21.391 69.861,21.618 C69.953,21.846 70.000,22.085 70.000,22.331 L70.000,71.648 C70.000,73.342 69.331,74.937 68.116,76.138 ZM15.372,42.469 C15.253,42.075 15.072,41.719 14.832,41.412 C14.596,41.109 14.327,40.855 14.032,40.657 C13.734,40.457 13.404,40.309 13.052,40.218 C12.820,40.156 12.480,40.112 12.010,40.083 C11.563,40.056 10.992,40.042 10.310,40.042 L6.375,40.042 L6.375,51.652 L9.330,51.652 L9.330,47.544 L10.416,47.544 C10.926,47.544 11.382,47.531 11.773,47.505 C12.172,47.477 12.515,47.436 12.801,47.380 C13.021,47.333 13.241,47.260 13.456,47.164 C13.667,47.070 13.879,46.949 14.086,46.807 C14.300,46.661 14.497,46.485 14.672,46.283 C14.845,46.085 15.001,45.858 15.136,45.608 C15.274,45.352 15.378,45.064 15.447,44.751 C15.513,44.447 15.547,44.111 15.547,43.753 C15.547,43.286 15.488,42.854 15.372,42.469 ZM66.153,23.530 L48.168,23.530 C47.654,23.530 47.171,23.332 46.808,22.972 C46.445,22.612 46.244,22.133 46.244,21.624 L46.244,3.811 L18.661,3.811 C17.973,3.811 17.325,4.077 16.837,4.560 C16.349,5.044 16.080,5.685 16.080,6.366 L16.080,33.032 L40.059,33.032 C41.370,33.032 42.604,33.539 43.534,34.460 C44.463,35.380 44.975,36.603 44.975,37.902 L44.975,53.842 C44.975,55.140 44.463,56.362 43.534,57.283 C42.604,58.203 41.370,58.711 40.059,58.711 L16.080,58.711 L16.080,71.645 C16.080,72.323 16.349,72.961 16.837,73.442 C17.324,73.924 17.972,74.189 18.661,74.189 L63.572,74.189 C64.261,74.189 64.908,73.924 65.397,73.443 C65.884,72.963 66.153,72.325 66.153,71.648 L66.153,23.530 ZM18.758,40.042 L18.758,51.652 L23.309,51.652 C23.734,51.652 24.121,51.632 24.461,51.592 C24.811,51.551 25.123,51.488 25.391,51.405 C25.741,51.294 26.061,51.158 26.342,51.002 C26.629,50.842 26.884,50.656 27.096,50.451 C27.373,50.185 27.622,49.876 27.833,49.530 C28.042,49.190 28.223,48.804 28.368,48.386 C28.488,48.041 28.578,47.661 28.638,47.254 C28.697,46.853 28.726,46.414 28.726,45.951 C28.726,45.427 28.695,44.936 28.632,44.493 C28.569,44.044 28.473,43.629 28.346,43.261 C28.218,42.891 28.059,42.545 27.872,42.231 C27.683,41.916 27.462,41.624 27.213,41.366 C26.961,41.103 26.680,40.878 26.378,40.695 C26.074,40.512 25.742,40.367 25.390,40.265 C25.129,40.189 24.809,40.133 24.439,40.096 C24.079,40.060 23.658,40.042 23.189,40.042 L18.758,40.042 ZM39.575,47.024 L39.575,44.462 L34.975,44.462 L34.975,42.605 L40.305,42.605 L40.305,40.042 L32.019,40.042 L32.019,51.652 L34.975,51.652 L34.975,47.024 L39.575,47.024 ZM24.954,43.123 C25.064,43.226 25.164,43.352 25.251,43.498 C25.342,43.651 25.423,43.829 25.489,44.029 C25.557,44.230 25.608,44.483 25.643,44.779 C25.678,45.088 25.697,45.450 25.697,45.855 C25.697,46.260 25.678,46.627 25.643,46.944 C25.608,47.253 25.555,47.522 25.487,47.744 C25.420,47.963 25.342,48.152 25.257,48.304 C25.181,48.443 25.097,48.554 25.008,48.633 C24.913,48.718 24.804,48.791 24.684,48.852 C24.559,48.915 24.419,48.966 24.265,49.004 C24.148,49.033 23.986,49.056 23.783,49.072 C23.569,49.088 23.309,49.097 23.009,49.097 L21.712,49.097 L21.712,42.605 L22.348,42.605 C22.794,42.605 23.169,42.613 23.463,42.630 C23.746,42.646 23.959,42.670 24.097,42.701 C24.274,42.739 24.436,42.794 24.580,42.865 C24.719,42.935 24.845,43.021 24.954,43.123 ZM12.336,44.425 C12.274,44.516 12.199,44.594 12.114,44.660 C12.026,44.727 11.923,44.784 11.809,44.828 C11.729,44.859 11.567,44.902 11.245,44.933 C10.964,44.960 10.607,44.974 10.182,44.974 L9.330,44.974 L9.330,42.605 L10.040,42.605 C10.434,42.605 10.765,42.611 11.024,42.623 C11.335,42.637 11.494,42.658 11.576,42.673 C11.717,42.699 11.846,42.743 11.960,42.804 C12.073,42.865 12.176,42.945 12.265,43.043 C12.351,43.137 12.414,43.241 12.457,43.361 C12.502,43.485 12.524,43.626 12.524,43.782 C12.524,43.908 12.508,44.026 12.477,44.134 C12.445,44.239 12.399,44.335 12.336,44.425 Z"/>
</svg>